<svg viewBox="0 0 40 40">
    <g transform="translate(8.239700, 8.239700)" fill="#DC4B39">
        <path d="M25.3961668,11.4256461 L22.03534,11.4256461 L22.03534,8.06474458 L20.3175459,8.06474458 L20.3175459,11.4256461 L16.9565697,11.4256461 L16.9565697,13.0687535 L20.3175459,13.0687535 L20.3175459,16.4295056 L22.03534,16.4295056 L22.03534,13.0687535 L25.3961668,13.0687535 L25.3961668,11.4256461"></path>
        <path d="M8.96061155,24.1878107 C5.32882138,24.1878107 2.98552616,22.4812943 2.98552616,20.1061825 C2.98552616,17.7309214 5.15786352,16.929085 5.90458115,16.6615572 C7.33027557,16.1928982 9.16435687,16.1253067 9.47072172,16.1253067 C9.80882841,16.1253067 9.97859128,16.1253067 10.2491812,16.1595879 C12.8312498,17.9667073 13.9515503,18.8669808 13.9515503,20.5757378 C13.9515503,22.6464266 12.2187442,24.1878107 8.96061155,24.1878107 L8.96061155,24.1878107 Z M8.93125968,10.8247916 C6.01130845,10.8247916 4.68711325,7.11174229 4.68711325,4.8715894 C4.68711325,4.00081716 4.85620394,3.01517678 5.43285995,2.31237493 C5.97762474,1.64295803 6.92704208,1.2921546 7.81095917,1.2921546 C10.627544,1.2921546 12.0870715,5.03814074 12.0870715,7.44648808 C12.0870715,8.04868694 12.0195547,9.03328171 11.2390787,9.80434721 C10.6943139,10.3400002 9.77940185,10.8247916 8.93125968,10.8247916 L8.93125968,10.8247916 Z M13.3784792,14.5857898 L12.1547377,13.6514591 C11.7817523,13.3492021 11.2728371,12.947761 11.2728371,12.2131427 C11.2728371,11.4769559 11.7817523,11.0072512 12.2233001,10.5730227 C13.6489198,9.4707964 15.0746142,8.29821521 15.0746142,5.82421826 C15.0746142,3.28098674 13.5277033,2.05313739 12.7473766,1.41770294 L14.7594363,1.41770294 L16.9574659,0.0736410865 L9.87985546,0.0722220392 C8.04569947,0.0722220392 5.57222533,0.261552824 3.63657012,1.83363318 C2.17823761,3.07029556 1.69949586,4.8878711 1.69949586,6.42641713 C1.69949586,9.03328171 3.73657561,11.6765187 7.33468209,11.6765187 C7.67473063,11.6765187 8.04652103,11.6431338 8.42137358,11.6102716 C8.2522082,12.0112645 8.08139972,12.3465331 8.08139972,12.9148242 C8.08139972,13.9508034 8.62429734,14.5857898 9.10049974,15.1879886 C7.57315672,15.2897866 4.71990071,15.4564873 2.61702198,16.7269081 C0.611833449,17.8991158 0.00238997441,19.6030929 0.00238997441,20.8080134 C0.00238997441,23.2841763 2.28093183,25.6155217 7.20412974,25.6155217 C13.0423144,25.6155217 16.2289718,22.4141509 16.2289718,19.270513 C16.2289718,16.9620218 14.8716904,15.8240952 13.3784792,14.5857898 L13.3784792,14.5857898 Z"></path>
    </g>
</svg>