<svg viewBox="0 0 40 40">
    <path d="M33.8576779,11.63679 C32.8654912,12.0768084 31.7992282,12.3741981 30.6800961,12.5079495 C31.8224079,11.8232134 32.6995842,10.7389986 33.1126748,9.44715353 C32.0437487,10.0810917 30.8597135,10.5415279 29.5995308,10.7896979 C28.5902799,9.71445903 27.1524525,9.04254572 25.561245,9.04254572 C22.5057754,9.04254572 20.0286129,11.5196096 20.0286129,14.5748819 C20.0286129,15.0084889 20.0776353,15.4307527 20.171932,15.8356564 C15.5738828,15.6049452 11.4973259,13.4023873 8.76863977,10.0552489 C8.2924217,10.8723555 8.01959254,11.8227202 8.01959254,12.836607 C8.01959254,14.7559789 8.99639195,16.4493741 10.4808745,17.4414622 C9.57390993,17.4127589 8.7208996,17.1638985 7.97491011,16.7495256 C7.97451556,16.7726066 7.97451556,16.7957862 7.97451556,16.8190645 C7.97451556,19.4996159 9.88155785,21.7357103 12.4124774,22.2438867 C11.9481944,22.370339 11.4594494,22.4379051 10.954824,22.4379051 C10.5983509,22.4379051 10.2517415,22.4032836 9.91400933,22.3386766 C10.6179796,24.5366972 12.6611405,26.1361902 15.0820801,26.1808726 C13.1886497,27.6646648 10.8031207,28.5491402 8.21114504,28.5491402 C7.76461663,28.5491402 7.32420368,28.5230015 6.89138577,28.4719076 C9.33974636,30.0416124 12.2478527,30.9574543 15.3721707,30.9574543 C25.5483236,30.9574543 31.1130126,22.52727 31.1130126,15.2164151 C31.1130126,14.9765306 31.1076862,14.7379284 31.0970335,14.5007071 C32.1778946,13.7206879 33.1159298,12.7462558 33.8576779,11.63679" fill="#55ACEE"></path>
</svg>